<svg width="50" height="50" viewBox="0 0 50 50" fill="none" xmlns="http://www.w3.org/2000/svg">
<path d="M3.99803 0H49.9754L24.9877 25L0 50V4C0 2.93913 0.421217 1.92172 1.17099 1.17157C1.92077 0.421424 2.93769 0 3.99803 0Z" fill="#12D16F"/>
<path fill-rule="evenodd" clip-rule="evenodd" d="M20.4009 12.43L16.8277 12.074C16.7141 12.0605 16.6064 12.0161 16.5164 11.9456C16.4263 11.875 16.3573 11.7811 16.317 11.674L15.0376 8.40204C14.9972 8.28344 14.9208 8.18045 14.819 8.10751C14.7172 8.03458 14.5951 7.99536 14.4699 7.99536C14.3446 7.99536 14.2226 8.03458 14.1208 8.10751C14.0189 8.18045 13.9425 8.28344 13.9021 8.40204L12.6328 11.674C12.5938 11.782 12.5252 11.8767 12.4349 11.9475C12.3445 12.0182 12.2361 12.0621 12.122 12.074L8.54878 12.43C8.42686 12.4497 8.31287 12.5031 8.21971 12.5842C8.12656 12.6653 8.05795 12.7709 8.02165 12.889C7.98536 13.0071 7.98282 13.133 8.01433 13.2525C8.04584 13.372 8.11014 13.4802 8.19996 13.565L10.8986 16.058C10.9837 16.1383 11.0464 16.2393 11.0804 16.3512C11.1144 16.4631 11.1186 16.582 11.0925 16.696L10.2849 20.196C10.2515 20.3154 10.2542 20.4419 10.2928 20.5597C10.3314 20.6774 10.4041 20.781 10.5017 20.8573C10.5993 20.9336 10.7174 20.9792 10.8409 20.9883C10.9644 20.9973 11.0878 20.9693 11.1955 20.908L14.174 19.062C14.2676 19.0037 14.3756 18.9728 14.4859 18.9728C14.5961 18.9728 14.7041 19.0037 14.7977 19.062L17.7752 20.908C17.8828 20.9702 18.0066 20.9988 18.1305 20.9902C18.2545 20.9815 18.373 20.936 18.471 20.8595C18.5689 20.783 18.6418 20.679 18.6802 20.5608C18.7187 20.4426 18.721 20.3156 18.6868 20.196L17.8872 16.696C17.8616 16.5815 17.8667 16.4622 17.9018 16.3503C17.9369 16.2383 18.0008 16.1375 18.0871 16.058L20.7788 13.565C20.8665 13.4772 20.928 13.3667 20.9565 13.2458C20.985 13.125 20.9793 12.9986 20.9401 12.8808C20.9009 12.763 20.8297 12.6585 20.7345 12.5789C20.6393 12.4992 20.5238 12.4477 20.4009 12.43Z" fill="white"/>
</svg>
